# xmcd
# 
# Track frame offsets:
#     150
#     14691
#     31396
#     45066
#     59787
#     77559
#     93867
#     107731
#     124292
#     138849
#     152233
#     169658
# 
# Disc length: 2581
# 
# Revision: 3
# Processed by: cddbd v1.5.2PL0 Copyright (c) Steve Scherf et al.
# Submitted via: fre:ac v1.0.31
# 
DISCID=950a130c
DTITLE=Nicki - I gib wieder Gas
DYEAR=2006
DGENRE=Pop-Folk
TTITLE0=I gib wieder Gas
TTITLE1=Du brauchst mir koan Himme vasprecha
TTITLE2=Nie im Leben
TTITLE3=Denkst du a no manchmoi an mi
TTITLE4=Volle Fahrt
TTITLE5=Lebn oder lebn lassen
TTITLE6=Immer dann
TTITLE7=Wer feiert mit
TTITLE8=Easy rider
TTITLE9=Wer hot denn bloß dei Braut entführt
TTITLE10=Wenn du Sorgn host
TTITLE11=Medley (Alte Songs)
EXTD=YEAR: 2006
EXTT0=
EXTT1=
EXTT2=
EXTT3=
EXTT4=
EXTT5=
EXTT6=
EXTT7=
EXTT8=
EXTT9=
EXTT10=
EXTT11=
PLAYORDER=
